# xmcd CD database file
#
# Track frame offsets:
#	150
#	11157
#	24152
#	39537
#	55372
#	75622
#	86982
#	97600
#	109347
#	125455
#	141690
#	155155
#	175597
#	191472
#	214455
#	232435
#	247400
#	259977
#	279590
#	302295
#
# Disc length: 4254 seconds
#
# Revision: 9
# Processed by: cddbd v1.5.2PL0 Copyright (c) Steve Scherf et al.
# Submitted via: CDex 2.11
#
DISCID=28109c14
DTITLE=James Taylor - The Best of James Taylor
DYEAR=2003
DGENRE=Singer/Songwriter, Soft Rock
TTITLE0=Something in the Way She Moves
TTITLE1=Sweet Baby James
TTITLE2=Fire and Rain
TTITLE3=Country Road
TTITLE4=You've Got a Friend
TTITLE5=You Can Close Your Eyes
TTITLE6=Long Ago and Far Away
TTITLE7=Don't Let Me Be Lonely Tonight
TTITLE8=Walking Man
TTITLE9=How Sweet It Is (To Be Loved by You)
TTITLE10=Mexico
TTITLE11=Shower the People
TTITLE12=Golden Moments
TTITLE13=Steamroller [Live]
TTITLE14=Carolina in My Mind
TTITLE15=Handy Man
TTITLE16=Your Smiling Face
TTITLE17=Up on the Roof
TTITLE18=Only a Dream in Rio
TTITLE19=Bittersweet
EXTD=YEAR: 2003
EXTT0=
EXTT1=
EXTT2=
EXTT3=
EXTT4=
EXTT5=
EXTT6=
EXTT7=
EXTT8=
EXTT9=
EXTT10=
EXTT11=
EXTT12=
EXTT13=
EXTT14=
EXTT15=
EXTT16=
EXTT17=
EXTT18=
EXTT19=
PLAYORDER=
